<svg id="Icons" xmlns="http://www.w3.org/2000/svg" viewBox="0 0 512 512"><defs><style>.cls-1{fill:#fa4654;}.cls-2{fill:#e52e44;}.cls-3{fill:#8c4735;}.cls-4{fill:#a05740;}.cls-5{fill:#b76049;}.cls-6{fill:#a583bb;}.cls-7{fill:#c2aacf;}.cls-8{fill:#decee5;}.cls-9{fill:#f4e6f4;}</style></defs><title>019-beer-export</title><circle class="cls-1" cx="256" cy="256" r="255.98"/><path class="cls-2" d="M0,255.76A255.63,255.63,0,0,1,103.44,50.44c113.54-84.25,273.87-60.52,358.12,53a254.76,254.76,0,0,1,49.93,136,76.89,76.89,0,0,0-14.24,6.88c-23.84,14.74-42,41.9-69.91,44.44-19.15,1.75-37.29-9.24-51.1-22.62s-24.87-29.51-39.4-42.12a112.53,112.53,0,0,0-157.7,10c-14.17,15.89-26.53,37.44-47.68,40-28.75,3.44-51.22-31.63-80-28.95-9.3.87-17.72,5.66-26.73,8A54.5,54.5,0,0,1,0,255.76Z"/><path class="cls-3" d="M295.18,434.38a36.28,36.28,0,0,1-31.55,18.33H247.91a36.3,36.3,0,0,1-36.1-40.15l15.72-147.43H284l15.72,147.43A36.1,36.1,0,0,1,295.18,434.38Z"/><path class="cls-4" d="M295.18,434.38a36.43,36.43,0,0,1-7.15.94l-15.71.5a36.31,36.31,0,0,1-37.37-39l9.8-131.71H284l15.72,147.43A36.1,36.1,0,0,1,295.18,434.38Z"/><ellipse class="cls-5" cx="270.51" cy="307.08" rx="12.45" ry="26.38" transform="translate(-37.05 37.12) rotate(-7.35)"/><ellipse class="cls-5" cx="277.03" cy="357.69" rx="9.17" ry="19.43" transform="translate(-43.47 38.37) rotate(-7.35)"/><path class="cls-6" d="M300.16,256.58a8.55,8.55,0,0,1-8.54,8.55H219.93a8.55,8.55,0,1,1,0-17.09h71.69A8.54,8.54,0,0,1,300.16,256.58Z"/><path class="cls-7" d="M300.16,256.58a8.55,8.55,0,0,1-8.54,8.55H235.25a8.55,8.55,0,1,1,0-17.09h56.37A8.54,8.54,0,0,1,300.16,256.58Z"/><ellipse class="cls-8" cx="263.91" cy="255.36" rx="13.26" ry="4.67"/><ellipse class="cls-8" cx="289.33" cy="255.36" rx="8.06" ry="2.84"/><path class="cls-7" d="M303.89,53H197.32a29.14,29.14,0,0,0-29.14,29.14v101.9a29.16,29.16,0,0,0,8.3,20.37L212,240.74a24.21,24.21,0,0,0,17.33,7.3h42.18a24.23,24.23,0,0,0,17.24-7.21l35.92-36.37A29.14,29.14,0,0,0,333,184V82.17A29.15,29.15,0,0,0,303.89,53Zm2.67,121a10.27,10.27,0,0,1-10.28,10.27H279.91A10.27,10.27,0,0,1,269.63,174a10.28,10.28,0,0,0-10.28-10.28H241.23A10.28,10.28,0,0,0,231,174a10.27,10.27,0,0,1-10.28,10.27H204.3A10.27,10.27,0,0,1,194,174V87.05a9,9,0,0,1,9-9h24a9,9,0,0,1,6.57,2.84l10.09,10.73a9,9,0,0,0,7.84,2.75v.09h9.52V80.51c1.67-1.59,10.14-2.49,12.46-2.49h24a9,9,0,0,1,9,9Z"/><path class="cls-8" d="M314.68,53H208.11A29.15,29.15,0,0,0,179,82.17v101.9a29.16,29.16,0,0,0,8.3,20.37l35.48,36.3a24.22,24.22,0,0,0,17.33,7.3h42.18a24.23,24.23,0,0,0,17.24-7.21l35.92-36.37A29.14,29.14,0,0,0,343.82,184V82.17A29.14,29.14,0,0,0,314.68,53Zm2.66,121a10.27,10.27,0,0,1-10.28,10.27H290.69A10.27,10.27,0,0,1,280.41,174a10.28,10.28,0,0,0-10.28-10.28H252A10.28,10.28,0,0,0,241.73,174a10.27,10.27,0,0,1-10.28,10.27H215.08A10.27,10.27,0,0,1,204.8,174V87.05a9,9,0,0,1,9-9h24a9.06,9.06,0,0,1,6.58,2.84L254.5,91.59a9,9,0,0,0,13.14,0l10.1-10.73A9,9,0,0,1,284.31,78h24a9,9,0,0,1,9,9Z"/><ellipse class="cls-9" cx="330.58" cy="98.34" rx="10.97" ry="23.24"/><ellipse class="cls-9" cx="330.58" cy="143.3" rx="8.08" ry="17.12"/><ellipse class="cls-9" cx="212.97" cy="65.02" rx="18.95" ry="8.94"/><rect class="cls-7" x="234.33" y="196.57" width="53.48" height="34.64" rx="8.5"/></svg>